<?xml version="1.0" encoding="UTF-8"?>
<!DOCTYPE svg PUBLIC "-//W3C//DTD SVG 1.1//EN" "http://www.w3.org/Graphics/SVG/1.1/DTD/svg11.dtd">
<svg xmlns="http://www.w3.org/2000/svg" version="1.1" width="500" height="500" viewBox="175 0 15 95" style="shape-rendering:geometricPrecision; text-rendering:geometricPrecision; image-rendering:optimizeQuality; fill-rule:evenodd; clip-rule:evenodd" xmlns:xlink="http://www.w3.org/1999/xlink">
  <rect width="500" height="500" fill="none"/>
  <g>
    <path style="opacity:0.866" fill="#ff1616" d="M 177.5,87.5 C 175.661,88.7525 173.828,88.7525 172,87.5C 171.333,77.5 171.333,67.5 172,57.5C 174.112,55.0777 176.112,55.0777 178,57.5C 178.5,64.1583 178.666,70.825 178.5,77.5C 180.936,77.683 183.103,77.0163 185,75.5C 185.333,69.1667 185.667,62.8333 186,56.5C 190.718,54.2271 195.552,52.0604 200.5,50C 201.423,47.9592 201.756,45.7925 201.5,43.5C 187.301,48.2341 173.301,53.5674 159.5,59.5C 158.833,59.1667 158.167,58.8333 157.5,58.5C 156.189,51.6099 156.189,44.7765 157.5,38C 171.655,32.7883 185.988,27.1217 200.5,21C 201.435,18.6194 201.768,16.1194 201.5,13.5C 193.941,15.2975 186.608,17.7975 179.5,21C 179.427,24.6453 177.76,27.1453 174.5,28.5C 173.833,28.1667 173.167,27.8333 172.5,27.5C 171.209,23.9553 171.209,20.4553 172.5,17C 183.587,12.3044 194.753,7.80436 206,3.5C 206.772,3.6448 207.439,3.97814 208,4.5C 208.667,11.5 208.667,18.5 208,25.5C 193.469,31.1799 178.969,37.0132 164.5,43C 163.577,45.0408 163.244,47.2075 163.5,49.5C 175.689,45.6149 187.689,41.1149 199.5,36C 202.366,34.7241 205.2,34.5574 208,35.5C 208.667,41.8333 208.667,48.1667 208,54.5C 203.552,56.5735 199.052,58.5735 194.5,60.5C 193.67,66.4725 193.17,72.4725 193,78.5C 188.147,82.1718 182.981,85.1718 177.5,87.5 Z"/>
  </g>
</svg>