<?xml version="1.0" encoding="UTF-8" standalone="no"?>
<svg
   viewBox="203 110 62.617192 95.86316"
   version="1.0"
   id="svg828"
   sodipodi:docname="firemetrics-logo-small.svg"
   width="62.617191"
   height="95.863159"
   inkscape:version="1.1.2 (b8e25be8, 2022-02-05)"
   xmlns:inkscape="http://www.inkscape.org/namespaces/inkscape"
   xmlns:sodipodi="http://sodipodi.sourceforge.net/DTD/sodipodi-0.dtd"
   xmlns="http://www.w3.org/2000/svg"
   xmlns:svg="http://www.w3.org/2000/svg">
  <defs
     id="defs832" />
  <sodipodi:namedview
     id="namedview830"
     pagecolor="#ffffff"
     bordercolor="#666666"
     borderopacity="1.0"
     inkscape:pageshadow="2"
     inkscape:pageopacity="0.0"
     inkscape:pagecheckerboard="0"
     showgrid="false"
     fit-margin-left="5"
     fit-margin-top="5"
     fit-margin-right="5"
     fit-margin-bottom="5"
     inkscape:zoom="1.2400238"
     inkscape:cx="27.01561"
     inkscape:cy="143.94884"
     inkscape:window-width="1383"
     inkscape:window-height="969"
     inkscape:window-x="0"
     inkscape:window-y="43"
     inkscape:window-maximized="0"
     inkscape:current-layer="svg828" />
  <g
     clip-path="url(#9458158743)"
     id="g826"
     transform="translate(46.83594,0.01430234)">
    <path
       fill="#ff1617"
       d="m 177.12891,136.82812 v -7.1289 c 0,-0.9961 0.58593,-1.8125 1.51562,-2.22266 l 0.35156,-0.11718 30.82422,-11.91797 0.8125,-0.29297 c 0.75781,-0.29297 1.51563,-0.17578 2.15625,0.23437 0.64063,0.46485 0.99219,1.10938 0.99219,1.92578 v 17.35547 c 0,0.99219 -0.58203,1.8125 -1.51563,2.21875 L 211.91797,137 168.62109,153.77344 c -0.92968,0.34765 -1.51172,1.22656 -1.51172,2.21875 v 3.79687 c 0,0.82031 0.34766,1.46094 0.98829,1.92969 0.64062,0.46875 1.45703,0.52734 2.15625,0.23437 l 39.50781,-15.36718 0.8164,-0.29297 c 0.75391,-0.29297 1.51172,-0.17578 2.15235,0.23437 0.64453,0.46485 0.99219,1.16797 0.99219,1.92578 v 16.1875 c 0,0.99219 -0.58204,1.8125 -1.51563,2.16016 l -0.34766,0.11719 -12.76171,4.96875 c -0.9336,0.35156 -1.51563,1.22656 -1.51563,2.16015 v 16.30469 c 0,0.9336 -0.46484,1.69531 -1.28125,2.10156 l -0.35156,0.17579 -14.73828,7.53906 -0.875,0.40625 c -0.75782,0.41015 -1.57422,0.35156 -2.27344,-0.11328 -0.69922,-0.46875 -1.10547,-1.17188 -1.10547,-1.98828 v -27.28907 c 0,-0.99218 0.58203,-1.80859 1.51172,-2.21875 l 1.16797,-0.46875 c 0.75781,-0.29297 1.51562,-0.17578 2.15625,0.23438 0.64062,0.46875 0.98828,1.10937 0.98828,1.92969 v 18.17187 c 0,0.81641 0.41016,1.57813 1.10937,1.98438 0.69922,0.46875 1.51563,0.46875 2.26954,0.11718 l 4.19531,-2.16015 c 0.8164,-0.41016 1.28515,-1.16797 1.28515,-2.10547 v -16.71094 c 0,-0.99219 0.58204,-1.8125 1.51172,-2.16016 l 0.35157,-0.11718 12.76171,-4.96875 c 0.92969,-0.35157 1.51563,-1.22657 1.51563,-2.16016 v -3.625 c 0,-0.81641 -0.35156,-1.46094 -0.99219,-1.92578 -0.64062,-0.46875 -1.39844,-0.52734 -2.15625,-0.23438 l -23.71484,9.23047 -11.71094,4.5586 -4.08203,1.57812 -0.8125,0.29297 c -0.75781,0.29297 -1.51563,0.17578 -2.15625,-0.23437 -0.64063,-0.46875 -0.99219,-1.16797 -0.99219,-1.92969 v -16.35938 c 0,-0.99218 0.58203,-1.8125 1.51563,-2.22265 l 0.34765,-0.11328 6.76172,-2.63282 19.40235,-7.53515 17.13281,-6.66407 c 0.92969,-0.34765 1.51172,-1.22656 1.51172,-2.21875 v -4.85156 c 0,-0.8164 -0.34766,-1.46093 -0.98828,-1.92578 -0.64063,-0.46875 -1.39844,-0.52734 -2.15625,-0.23437 l -20.27735,7.82812 c -0.93359,0.35156 -1.51562,1.23047 -1.51562,2.22266 v 2.6875 c 0,0.99218 -0.58203,1.8125 -1.51563,2.21875 l -1.16406,0.46875 c -0.75781,0.29297 -1.51563,0.17578 -2.15625,-0.23438 -0.64063,-0.46484 -0.99219,-1.10937 -0.99219,-1.92578 z m 0,0"
       fill-opacity="1"
       fill-rule="evenodd"
       id="path824" />
  </g>
</svg>
